<?xml version="1.0" standalone="no"?>
<!DOCTYPE svg PUBLIC "-//W3C//DTD SVG 20010904//EN"
 "http://www.w3.org/TR/2001/REC-SVG-20010904/DTD/svg10.dtd">
<svg version="1.0" xmlns="http://www.w3.org/2000/svg"
 width="231.000000pt" height="176.000000pt" viewBox="0 0 231.000000 176.000000"
 preserveAspectRatio="xMidYMid meet">

<g transform="translate(0.000000,176.000000) scale(0.100000,-0.100000)"
fill="#000000" stroke="none">
<path d="M870 1741 c-125 -66 -131 -234 -10 -298 75 -40 149 -26 206 39 115
131 -44 341 -196 259z"/>
<path d="M1305 1747 c-175 -81 -113 -343 77 -325 117 12 184 135 132 245 -35
73 -138 112 -209 80z"/>
<path d="M1096 1338 c-80 -10 -170 -61 -223 -127 -24 -28 -43 -58 -43 -66 0
-13 46 -15 325 -15 179 0 325 2 325 5 0 19 -35 67 -79 109 -86 79 -183 110
-305 94z"/>
<path d="M462 1047 c-161 -73 -313 -148 -339 -167 -143 -106 -157 -316 -30
-443 60 -60 117 -82 212 -82 70 0 87 4 133 29 54 30 96 74 126 134 9 18 57
162 107 320 49 158 94 299 99 315 6 19 6 27 -3 26 -7 -1 -144 -60 -305 -132z"/>
<path d="M1530 1176 c0 -26 205 -648 224 -680 102 -174 339 -194 474 -41 54
62 76 128 70 214 -6 81 -31 133 -91 188 -55 51 -59 53 -395 202 -270 120 -282
125 -282 117z"/>
<path d="M790 860 l0 -100 365 0 365 0 0 100 0 100 -365 0 -365 0 0 -100z"/>
<path d="M790 490 l0 -100 365 0 365 0 0 100 0 100 -365 0 -365 0 0 -100z"/>
<path d="M830 206 c0 -24 68 -103 117 -135 69 -46 141 -64 232 -59 87 5 148
29 206 79 39 35 95 105 95 121 0 4 -146 8 -325 8 -267 0 -325 -2 -325 -14z"/>
</g>
</svg>
